<svg xmlns="http://www.w3.org/2000/svg" viewBox="0 0 512 512"><defs/><path d="M469.333 59.733H324.267c-29.687 0-55.484 16.93-68.267 41.634-12.783-24.704-38.579-41.634-68.267-41.634H42.667a8.536 8.536 0 00-8.533 8.533v307.2a8.53 8.53 0 008.533 8.533h145.067c32.939 0 59.733 26.803 59.733 59.733a8.53 8.53 0 008.533 8.533 8.525 8.525 0 008.533-8.533c0-32.93 26.803-59.733 59.733-59.733h145.067a8.525 8.525 0 008.533-8.533v-307.2a8.53 8.53 0 00-8.533-8.533zm-8.533 307.2H324.267c-29.687 0-55.484 16.922-68.267 41.634-12.783-24.713-38.579-41.634-68.267-41.634H51.2V76.8h136.533c32.939 0 59.733 26.795 59.733 59.733a8.536 8.536 0 008.533 8.533 8.53 8.53 0 008.533-8.533c0-32.939 26.803-59.733 59.733-59.733H460.8v290.133z"/><path d="M503.467 110.933h-34.133V128h25.6v307.2H17.067V128h25.6v-17.067H8.533A8.536 8.536 0 000 119.466v324.267a8.53 8.53 0 008.533 8.533h494.933a8.525 8.525 0 008.533-8.533V119.467a8.53 8.53 0 00-8.532-8.534z"/><path d="M187.733 401.067H51.2v-25.6H34.133V409.6a8.53 8.53 0 008.533 8.533h145.067c24.038 0 47.01 11.486 61.44 30.729l13.653-10.257c-17.638-23.501-45.712-37.538-75.093-37.538z"/><path d="M247.467 136.533h17.067v290.133h-17.067z"/><path d="M460.8 375.467v25.6H324.267c-29.38 0-57.455 14.037-75.093 37.547l13.653 10.249c14.43-19.243 37.402-30.729 61.44-30.729h145.067a8.525 8.525 0 008.533-8.533v-34.133H460.8zM76.8 110.933h85.333V128H76.8zM128 153.6h85.333v17.067H128zM76.8 153.6h34.133v17.067H76.8zM76.8 196.267h136.533v17.067H76.8zM76.8 281.6h136.533v17.067H76.8zM76.8 324.267h136.533v17.067H76.8zM179.2 110.933h34.133V128H179.2zM76.8 238.933h85.333V256H76.8zM179.2 238.933h34.133V256H179.2zM349.867 324.267H435.2v17.067h-85.333zM298.667 281.6H384v17.067h-85.333zM401.067 281.6H435.2v17.067h-34.133zM298.667 238.933H435.2V256H298.667zM298.667 153.6H435.2v17.067H298.667zM298.667 324.267H332.8v17.067h-34.133zM349.867 196.267H435.2v17.067h-85.333zM298.667 196.267H332.8v17.067h-34.133zM384 110.933h51.2V128H384zM298.667 110.933h68.267V128h-68.267z"/></svg>