<svg width="84" height="84" viewBox="0 0 84 84" fill="none" xmlns="http://www.w3.org/2000/svg">
<g clip-path="url(#clip0)">
<path d="M62.88 33.1425C62.88 50.5061 48.8039 64.5822 31.4396 64.5822C14.0761 64.5822 0 50.5061 0 33.1425C0 15.7782 14.0761 1.70215 31.4396 1.70215C48.8039 1.70215 62.88 15.7782 62.88 33.1425Z" fill="#EFEFD2"/>
<path d="M82.6333 44.8222C82.6333 64.824 66.418 81.0393 46.4162 81.0393C26.4136 81.0393 10.1982 64.824 10.1982 44.8222C10.1982 24.8196 26.4136 8.60425 46.4162 8.60425C66.418 8.60425 82.6333 24.8196 82.6333 44.8222Z" fill="#6B4F5B"/>
<path d="M46.4159 82.4058C25.6914 82.4058 8.83154 65.546 8.83154 44.8222C8.83154 24.0984 25.6914 7.23779 46.4159 7.23779C67.1397 7.23779 84.0003 24.0984 84.0003 44.8222C84.0003 65.546 67.1389 82.4058 46.4159 82.4058ZM46.4159 9.9715C27.1994 9.9715 11.5653 25.6057 11.5653 44.8222C11.5653 64.0379 27.1994 79.6721 46.4159 79.6721C65.6325 79.6721 81.2658 64.0387 81.2658 44.8222C81.2658 25.6057 65.6325 9.9715 46.4159 9.9715Z" fill="#4C241D"/>
<path d="M73.7828 44.8222C73.7828 59.937 61.53 72.1898 46.4159 72.1898C31.3011 72.1898 19.0483 59.937 19.0483 44.8222C19.0483 29.7074 31.3011 17.4546 46.4159 17.4546C61.53 17.4546 73.7828 29.7074 73.7828 44.8222Z" fill="white"/>
<path d="M46.4157 73.5561C30.5711 73.5561 17.6816 60.6666 17.6816 44.822C17.6816 28.9782 30.5711 16.0872 46.4157 16.0872C62.2595 16.0872 75.1498 28.9782 75.1498 44.822C75.1498 60.6666 62.2595 73.5561 46.4157 73.5561ZM46.4157 18.8216C32.0792 18.8216 20.4154 30.4855 20.4154 44.822C20.4154 59.1585 32.0792 70.8224 46.4157 70.8224C60.7522 70.8224 72.4161 59.1585 72.4161 44.822C72.4161 30.4847 60.7522 18.8216 46.4157 18.8216Z" fill="#4C241D"/>
<path d="M46.4705 24.3204C45.7157 24.3204 45.104 23.708 45.104 22.9532V17.9676C45.104 17.2128 45.7157 16.6003 46.4705 16.6003C47.2253 16.6003 47.8377 17.2128 47.8377 17.9676V22.9532C47.8377 23.708 47.2253 24.3204 46.4705 24.3204Z" fill="#4C241D"/>
<path d="M46.4705 72.9327C45.7157 72.9327 45.104 72.3203 45.104 71.5655V66.5799C45.104 65.8251 45.7157 65.2126 46.4705 65.2126C47.2253 65.2126 47.8377 65.8251 47.8377 66.5799V71.5655C47.8377 72.3203 47.2253 72.9327 46.4705 72.9327Z" fill="#4C241D"/>
<path d="M25.2805 45.5103H19.0481C18.2933 45.5103 17.6816 44.8979 17.6816 44.1431C17.6816 43.3883 18.2933 42.7766 19.0481 42.7766H25.2805C26.0353 42.7766 26.647 43.3883 26.647 44.1431C26.647 44.8979 26.0353 45.5103 25.2805 45.5103Z" fill="#4C241D"/>
<path d="M72.6468 45.5103H67.6612C66.9064 45.5103 66.2939 44.8979 66.2939 44.1431C66.2939 43.3883 66.9064 42.7766 67.6612 42.7766H72.6468C73.4024 42.7766 74.014 43.3883 74.014 44.1431C74.014 44.8979 73.4024 45.5103 72.6468 45.5103Z" fill="#4C241D"/>
<path d="M27.6561 65.8226C27.3135 65.8226 26.9701 65.6943 26.705 65.437C26.1629 64.9129 26.1488 64.047 26.6737 63.5042L30.1419 59.9218C30.6651 59.3805 31.5318 59.3665 32.0746 59.8913C32.6167 60.4161 32.6307 61.2812 32.1059 61.8241L28.6377 65.4065C28.3702 65.6826 28.0128 65.8226 27.6561 65.8226Z" fill="#4C241D"/>
<path d="M61.467 30.8947C61.1245 30.8947 60.7819 30.7672 60.5167 30.5098C59.9739 29.985 59.9598 29.1191 60.4846 28.5771L63.952 24.9947C64.4761 24.4526 65.3427 24.4378 65.8848 24.9626C66.4276 25.4882 66.4417 26.3541 65.9169 26.8954L62.4495 30.4778C62.1812 30.7546 61.8245 30.8947 61.467 30.8947Z" fill="#4C241D"/>
<path d="M30.6366 32.2766C30.294 32.2766 29.9506 32.1491 29.6863 31.8918L25.2075 27.5577C24.6655 27.0321 24.6514 26.167 25.1754 25.6249C25.7003 25.0813 26.5669 25.0673 27.1082 25.5929L31.587 29.9269C32.1298 30.4525 32.1431 31.3176 31.619 31.8597C31.3507 32.1366 30.9933 32.2766 30.6366 32.2766Z" fill="#4C241D"/>
<path d="M64.6695 65.2212C64.3277 65.2212 63.9843 65.0937 63.7192 64.8364L60.1368 61.369C59.594 60.8441 59.5799 59.9791 60.1047 59.4362C60.6304 58.8926 61.4955 58.8785 62.0375 59.4042L65.6199 62.8715C66.1627 63.3964 66.1768 64.2615 65.652 64.8043C65.3837 65.0812 65.027 65.2212 64.6695 65.2212Z" fill="#4C241D"/>
<path d="M51.4566 52.9888C48.6416 52.9888 46.3506 50.6985 46.3506 47.8835V42.8971C46.3506 40.0813 48.6416 37.7903 51.4566 37.7903C54.2725 37.7903 56.5627 40.0813 56.5627 42.8971V47.8835C56.5627 50.6985 54.2725 52.9888 51.4566 52.9888ZM51.4566 40.524C50.1481 40.524 49.0843 41.5885 49.0843 42.8971V47.8827C49.0843 49.1913 50.1481 50.2551 51.4566 50.2551C52.7644 50.2551 53.829 49.1913 53.829 47.8827V42.8971C53.829 41.5893 52.7644 40.524 51.4566 40.524Z" fill="#4C241D"/>
<path d="M40.2457 52.9887C39.0458 52.9887 37.882 52.5726 36.9559 51.7951C35.7967 50.8213 35.1318 49.3954 35.1318 47.8834V41.7527C35.1318 37.7581 38.381 34.5098 42.3748 34.5098C43.1296 34.5098 43.742 35.1214 43.742 35.8762C43.742 36.631 43.1296 37.2435 42.3748 37.2435C39.8883 37.2435 37.8655 39.2662 37.8655 41.7527V42.7766H40.2379C41.7498 42.7766 43.1757 43.4414 44.1496 44.6006C45.1226 45.759 45.5293 47.2882 45.2642 48.797C44.902 50.8565 43.2117 52.5476 41.153 52.9089C40.8503 52.9621 40.5468 52.9887 40.2457 52.9887ZM37.8655 45.5103V47.8827C37.8655 48.5858 38.1745 49.2483 38.7134 49.7012C39.2594 50.1588 39.954 50.341 40.679 50.2159C41.6122 50.0524 42.4076 49.2562 42.5719 48.323C42.6978 47.6034 42.5148 46.9049 42.0557 46.3582C41.6028 45.8193 40.9403 45.5103 40.2379 45.5103H37.8655Z" fill="#4C241D"/>
</g>
<defs>
<clipPath id="clip0">
<rect width="84" height="84" fill="white"/>
</clipPath>
</defs>
</svg>
