<svg height="375.39669pt" viewBox="0 0 375.39669 375.39669" width="375.39669pt" xmlns="http://www.w3.org/2000/svg"><path d="m187.699219 0c-103.5 0-187.699219 84.203125-187.699219 187.699219 0 103.496093 84.199219 187.699219 187.699219 187.699219 103.496093 0 187.699219-84.203126 187.699219-187.699219 0-103.496094-84.203126-187.699219-187.699219-187.699219zm0 361.742188c-95.96875 0-174.046875-78.078126-174.046875-174.042969 0-95.972657 78.078125-174.046875 174.046875-174.046875s174.042969 78.074218 174.042969 174.046875c0 95.964843-78.074219 174.042969-174.042969 174.042969zm0 0"/><path d="m187.699219 44.195312c-77.601563 0-140.855469 61.957032-143.273438 138.980469-.066406.382813-.226562.730469-.226562 1.132813 0 .242187.109375.445312.136719.679687-.019532.910157-.136719 1.796875-.136719 2.710938 0 79.125 64.371093 143.5 143.5 143.5 79.125 0 143.5-64.375 143.5-143.5s-64.375-143.503907-143.5-143.503907zm94.5 232.28125-16.484375-15.953124c-2.707032-2.628907-7.027344-2.554688-9.652344.160156-2.621094 2.710937-2.550781 7.027344.160156 9.652344l16.128906 15.609374c-21.070312 18.179688-47.996093 29.628907-77.550781 31.242188v-20.828125c0-3.769531-3.054687-6.828125-6.824219-6.828125-3.769531 0-6.828124 3.058594-6.828124 6.828125v20.855469c-29.695313-1.492188-56.773438-12.917969-77.953126-31.136719l13.039063-13.46875c2.625-2.707031 2.554687-7.03125-.152344-9.652344-2.714843-2.621093-7.039062-2.550781-9.652343.15625l-13.085938 13.515625c-21.195312-22.476562-34.445312-52.4375-35.316406-85.492187h24.125c3.769531 0 6.824218-3.054688 6.824218-6.824219s-3.054687-6.828125-6.824218-6.828125h-23.785156c2.105468-26.851563 12.34375-51.429687 28.347656-71.234375l17.4375 16.878906c1.320312 1.28125 3.035156 1.917969 4.746094 1.917969 1.78125 0 3.566406-.695313 4.90625-2.078125 2.617187-2.707031 2.550781-7.03125-.160157-9.65625l-17.832031-17.261719c22.070312-22.128906 52.09375-36.199219 85.335938-37.867187v20.300781c0 3.773437 3.054687 6.828125 6.824218 6.828125 3.769532 0 6.828125-3.054688 6.828125-6.828125v-20.273437c30.105469 1.640624 57.46875 13.519531 78.710938 32.292968l-15.550781 16.066406c-2.621094 2.707032-2.550782 7.027344.160156 9.652344 1.324218 1.28125 3.035156 1.917969 4.746094 1.917969 1.785156 0 3.566406-.695313 4.90625-2.078125l15.472656-15.984375c19.058594 20.761719 31.449218 47.65625 33.78125 77.40625h-23.226563c-3.773437 0-6.828125 3.054687-6.828125 6.824219 0 3.769531 3.054688 6.828125 6.828125 6.828125h23.570313c-.867188 32.976562-14.0625 62.875-35.171875 85.339843zm0 0"/><path d="m212.875 152.582031c-14.058594 0-25.5 11.441407-25.5 25.503907v24.898437c0 14.0625 11.441406 25.5 25.5 25.5 14.0625 0 25.503906-11.4375 25.503906-25.5v-24.898437c0-14.0625-11.441406-25.503907-25.503906-25.503907zm11.847656 50.402344c0 6.535156-5.316406 11.847656-11.847656 11.847656-6.535156 0-11.847656-5.3125-11.847656-11.847656v-24.898437c0-6.535157 5.3125-11.851563 11.847656-11.851563 6.53125 0 11.847656 5.316406 11.847656 11.851563zm0 0"/><path d="m156.847656 177.484375h-11.847656v-5.113281c0-12.417969 10.105469-22.519532 22.519531-22.519532 3.773438 0 6.828125-3.058593 6.828125-6.828124 0-3.769532-3.054687-6.828126-6.828125-6.828126-19.945312 0-36.171875 16.230469-36.171875 36.175782v30.613281c0 7.554687 3.320313 14.675781 9.109375 19.539063 4.628907 3.882812 10.4375 5.957031 16.433594 5.957031 1.5 0 3.015625-.128907 4.527344-.394531 10.28125-1.808594 18.726562-10.25 20.53125-20.535157 1.324219-7.535156-.703125-15.175781-5.566407-20.957031-4.859374-5.792969-11.980468-9.109375-19.535156-9.109375zm11.65625 27.703125c-.820312 4.65625-4.792968 8.632812-9.449218 9.453125-3.625.621094-7.09375-.289063-9.816407-2.574219-2.695312-2.261718-4.238281-5.570312-4.238281-9.082031v-11.847656h11.847656c3.511719 0 6.820313 1.542969 9.078125 4.234375 2.296875 2.730468 3.207031 6.21875 2.578125 9.816406zm0 0"/></svg>