<?xml version="1.0" encoding="iso-8859-1"?>
<!-- Generator: Adobe Illustrator 17.1.0, SVG Export Plug-In . SVG Version: 6.00 Build 0)  -->
<!DOCTYPE svg PUBLIC "-//W3C//DTD SVG 1.1//EN" "http://www.w3.org/Graphics/SVG/1.1/DTD/svg11.dtd">
<svg version="1.1" id="Capa_1" xmlns="http://www.w3.org/2000/svg" xmlns:xlink="http://www.w3.org/1999/xlink" x="0px" y="0px"
	 viewBox="0 0 487.867 487.867" style="enable-background:new 0 0 487.867 487.867;" xml:space="preserve">
<path d="M482.867,102.737h-14.171v-9.333c0-2.762-2.238-5-5-5H298.434c-14.759,0-28.271,5.409-38.688,14.333H5c-2.762,0-5,2.238-5,5
	v275.519c0,2.762,2.238,5,5,5h216.005c3.314,7.031,13.399,11.207,22.873,11.207c11.128,0,20.039-4.566,23.031-11.207h215.958
	c2.762,0,5-2.238,5-5V107.737C487.867,104.976,485.629,102.737,482.867,102.737z M398.432,292.364
	c-6.874-10.353-16.332-15.15-23.693-17.373l73.175-62.261l-44.919,88.284C401.938,298.307,400.457,295.413,398.432,292.364z
	 M458.696,213.59v104.184h-53.01L458.696,213.59z M458.696,327.773v33.022H251.545c10.338-20.012,31.256-33.022,54.138-33.022
	H458.696z M458.696,98.404v92.022l-98.536,83.838c-1.597,1.358-2.176,3.568-1.452,5.536c0.725,1.966,2.597,3.272,4.692,3.272
	c0.001,0,0.002,0,0.003,0c0.168,0,16.962,0.161,26.698,14.824c6.411,9.654,5.566,16.478,4.396,19.818l-0.03,0.059h-88.784
	c-22.636,0-43.625,10.935-56.806,28.515V147.96c0-27.325,22.23-49.556,49.556-49.556H458.696z M477.867,378.256H262.992
	c-2.762,0-5,2.238-5,5c0,2.531-5.498,6.207-14.114,6.207c-5.409,0-9.833-1.825-12.179-3.669c0.099-0.393,0.168-0.798,0.168-1.222
	v-12.635c0-2.762-2.238-5-5-5s-5,2.238-5,5v6.319H10V112.737h211.867v229.18c0,2.762,2.238,5,5,5s5-2.238,5-5v-229.18h18.582
	c-7.266,9.872-11.571,22.052-11.571,35.223v217.836c0,2.421,1.734,4.494,4.118,4.922c0.297,0.053,0.592,0.078,0.885,0.078
	c0.021,0,0.041-0.004,0.062-0.005c0.016,0,0.031,0.005,0.047,0.005h219.707c2.762,0,5-2.238,5-5v-43.022V112.737h9.171V378.256z
	 M303.298,338.688h143.359c2.762,0,5,2.238,5,5s-2.238,5-5,5H303.298c-2.762,0-5-2.238-5-5S300.536,338.688,303.298,338.688z
	 M277.163,295.14V132.998c0-2.762,2.238-5,5-5s5,2.238,5,5V295.14c0,2.762-2.238,5-5,5S277.163,297.901,277.163,295.14z
	 M214.8,363.407c0,2.762-2.238,5-5,5H22.067c-2.762,0-5-2.238-5-5s2.238-5,5-5H209.8C212.562,358.407,214.8,360.646,214.8,363.407z"
	/>
<g>
</g>
<g>
</g>
<g>
</g>
<g>
</g>
<g>
</g>
<g>
</g>
<g>
</g>
<g>
</g>
<g>
</g>
<g>
</g>
<g>
</g>
<g>
</g>
<g>
</g>
<g>
</g>
<g>
</g>
</svg>
