<svg version="1.1" id="Capa_1" xmlns="http://www.w3.org/2000/svg" xmlns:xlink="http://www.w3.org/1999/xlink" x="0px" y="0px"
	 viewBox="0 0 487.867 487.867" style="enable-background:new 0 0 487.867 487.867;" xml:space="preserve">
<path d="M473.554,227.531c-1.003,0-2.014,0.115-3.003,0.342l-8.285,1.901v-24.387c0-4.62-2.078-8.912-5.703-11.774
	c-3.621-2.86-8.273-3.887-12.766-2.819c-35.84,8.534-123.036,29.209-158.582,36.85c-14.701,3.16-30.063,11.175-38.872,24.987
	c2.08-13.289,9.513-24.889,20.979-30.866l157.972-75.727c2.49-1.194,3.541-4.18,2.348-6.67s-4.181-3.541-6.67-2.348l-158.045,75.762
	c-0.048,0.022-0.095,0.046-0.141,0.07c-20.9,10.839-31.142,36.342-25.464,61.277h-18.434l-201.63-45.365
	c-0.971-0.219-1.962-0.33-2.947-0.33C6.42,228.434,0,235.388,0,243.937v7.207c0,7.46,4.918,13.868,11.695,15.235l201.638,40.694
	v10.465c0,18.638,13.727,33.802,30.6,33.802s30.6-15.164,30.6-33.802v-10.483l201.695-41.606
	c6.744-1.392,11.639-7.794,11.639-15.224v-7.191C487.867,234.485,481.446,227.531,473.554,227.531z M287.317,237.419
	c35.644-7.662,122.925-28.356,158.797-36.898c1.496-0.358,3.046-0.014,4.251,0.938c1.208,0.954,1.901,2.385,1.901,3.927v26.682
	l-183.3,42.06h-11.355l8.319-7.021c0.078-0.065,0.153-0.133,0.227-0.204c8.704-8.304,19.26-13.451,30.525-14.886
	c0.13-0.017,0.26-0.039,0.389-0.065l145.367-30.303c2.703-0.564,4.438-3.212,3.874-5.916c-0.563-2.703-3.21-4.433-5.915-3.875
	l-145.178,30.264c-13.275,1.735-25.665,7.761-35.853,17.438l-8.687,7.33C257.113,245.686,279.631,239.072,287.317,237.419z
	 M240.675,284.129h3.24c0.006,0,0.012,0.001,0.019,0.001c0.006,0,0.012-0.001,0.018-0.001h3.24v34.447
	c0,1.797-1.462,3.258-3.258,3.258c-1.797,0-3.258-1.461-3.258-3.258V284.129z M477.867,250.225c0,2.665-1.573,5-3.659,5.43
	l-205.685,42.43c-2.323,0.479-3.99,2.525-3.99,4.897v14.557c0,13.125-9.241,23.802-20.6,23.802c-11.359,0-20.6-10.677-20.6-23.802
	v-14.557c0-2.38-1.678-4.43-4.011-4.901L13.673,256.576c-2.094-0.422-3.673-2.758-3.673-5.433v-7.207
	c0-3.292,2.23-5.503,4.312-5.503c0.247,0,0.5,0.029,0.752,0.085l198.269,44.609v3.056c0,2.761,2.239,5,5,5s5-2.239,5-5v-2.056h7.342
	v34.447c0,7.311,5.948,13.258,13.258,13.258s13.258-5.948,13.258-13.258v-34.447h7.342v2.056c0,2.761,2.238,5,5,5s5-2.239,5-5
	v-3.073l198.255-45.492c0.257-0.059,0.515-0.089,0.767-0.089c2.083,0,4.313,2.211,4.313,5.502V250.225z"/>
</svg>
