<svg width="102" height="101" viewBox="0 0 102 101" fill="none" xmlns="http://www.w3.org/2000/svg">
<path d="M95.4147 22.2453C89.016 19.0964 81.9665 17.4997 74.462 17.4997C64.2095 17.4997 55.4915 20.5102 51.0041 22.4138C46.5077 20.5031 37.8065 17.4995 27.5373 17.4995C20.031 17.4995 12.9799 19.097 6.57992 22.2477C2.52127 24.246 0 28.2716 0 32.7536V73.2355C0 79.7033 5.30687 84.9657 11.8299 84.9657C13.2031 84.9657 14.5599 84.7285 15.8627 84.2615C19.4824 82.9632 23.4107 82.3049 27.5386 82.3049C38.4897 82.3049 47.4253 86.9148 47.7857 87.1033C49.7696 88.1983 52.1827 88.207 54.1747 87.1261L54.2266 87.0979C54.3151 87.0499 63.3697 82.3047 74.4622 82.3047C78.5897 82.3047 82.5178 82.9627 86.1376 84.2611C87.44 84.7283 88.7966 84.9653 90.17 84.9655H90.1707C93.2692 84.9655 96.2047 83.7781 98.4355 81.6227C100.734 79.4017 102 76.423 102 73.2353V32.7536C102 28.2705 99.4767 24.2442 95.4147 22.2453Z" fill="#FC9389"/>
<path d="M99.393 73.2353V25.4019C98.337 24.1054 96.9926 23.0218 95.4145 22.2453C89.0158 19.0964 81.9663 17.4998 74.4619 17.4998C64.2093 17.4998 55.4913 20.5102 51.0039 22.414C46.5075 20.5031 37.8063 17.4998 27.5369 17.4998C20.0306 17.4998 12.9795 19.0973 6.57952 22.248C5.00375 23.0237 3.66113 24.106 2.60645 25.4011V73.2355C2.60645 78.2802 6.74391 82.3844 11.8293 82.3844C12.899 82.3844 13.9572 82.1995 14.9745 81.8345C18.8797 80.4339 23.1066 79.7237 27.538 79.7237C39.3094 79.7237 48.8315 84.7302 49.0329 84.8373L51.0004 85.905L52.9731 84.8344C53.0673 84.7834 62.5293 79.7237 74.4614 79.7237C78.8926 79.7237 83.1195 80.4339 87.0245 81.8345C88.0416 82.1993 89.0996 82.3844 90.1692 82.3844H90.1699C92.5842 82.3844 94.8729 81.4577 96.6141 79.7755C98.4062 78.0441 99.393 75.7215 99.393 73.2353Z" fill="#FA695B"/>
<path d="M92.4278 17.1205C72.2092 7.17044 51.001 18.6804 51.001 18.6804L38.2305 44.7156L51.001 81.2701C51.001 81.2701 69.5053 71.2276 88.4229 78.0129C91.7626 79.2107 95.2883 76.7525 95.2883 73.2354V21.6775C95.2885 19.7436 94.1767 17.9813 92.4278 17.1205Z" fill="#BFBDC3"/>
<path d="M50.9942 18.6758C50.5374 18.4327 29.567 7.27661 9.56784 17.1224C7.8205 17.9826 6.71143 19.7451 6.71143 21.6773V73.2353C6.71143 76.7524 10.2373 79.2108 13.5768 78.0128C32.4949 71.2275 51.001 81.27 51.001 81.27V18.6803L50.9942 18.6758Z" fill="#E0E0E0"/>
<path d="M44.6898 35.1064C44.523 35.1064 44.3534 35.0794 44.187 35.0225C37.1365 32.6099 26.424 30.4649 15.4283 33.9471C14.6187 34.2035 13.7522 33.7613 13.4934 32.9596C13.2346 32.1579 13.681 31.3001 14.4906 31.0437C26.2923 27.3061 37.7003 29.5776 45.1926 32.1413C45.9961 32.4162 46.4224 33.284 46.1447 34.0796C45.9243 34.7104 45.3279 35.1064 44.6898 35.1064Z" fill="#423E4F"/>
<path d="M44.6893 44.9475C44.5225 44.9475 44.353 44.9205 44.1865 44.8636C37.136 42.4509 26.4235 40.306 15.4279 43.7881C14.6182 44.0444 13.7517 43.6024 13.4929 42.8007C13.2341 41.999 13.6805 41.1412 14.4902 40.8847C26.2918 37.1471 37.6998 39.4187 45.1922 41.9823C45.9956 42.2573 46.4219 43.125 46.1442 43.9206C45.9238 44.5514 45.3274 44.9475 44.6893 44.9475Z" fill="#423E4F"/>
<path d="M44.6894 54.7887C44.5226 54.7887 44.353 54.7617 44.1866 54.7048C37.1361 52.2922 26.4236 50.1472 15.4279 53.6294C14.6183 53.8858 13.7518 53.4436 13.493 52.6419C13.234 51.8402 13.6806 50.9824 14.4902 50.726C26.2919 46.9885 37.6998 49.2599 45.1922 51.8235C45.9957 52.0985 46.422 52.9662 46.1443 53.7619C45.9239 54.3926 45.3275 54.7887 44.6894 54.7887Z" fill="#423E4F"/>
<path d="M44.6893 64.6296C44.5225 64.6296 44.353 64.6026 44.1865 64.5457C37.136 62.1331 26.4235 59.9881 15.4279 63.4703C14.6182 63.7265 13.7517 63.2845 13.4929 62.4828C13.2341 61.6811 13.6805 60.8233 14.4902 60.5669C26.2918 56.8293 37.6998 59.1008 45.1922 61.6645C45.9956 61.9394 46.4219 62.8072 46.1442 63.6028C45.9238 64.2336 45.3274 64.6296 44.6893 64.6296Z" fill="#423E4F"/>
<path d="M57.3193 54.7886C56.6812 54.7886 56.0846 54.3927 55.8646 53.7619C55.587 52.9663 56.0132 52.0986 56.8167 51.8236C64.3089 49.26 75.7167 46.9884 87.5187 50.726C88.3283 50.9825 88.7749 51.8403 88.5159 52.642C88.2569 53.4439 87.3904 53.8857 86.581 53.6294C75.5855 50.1471 64.8729 52.2922 57.8223 54.7049C57.6557 54.7616 57.486 54.7886 57.3193 54.7886Z" fill="#423E4F"/>
<path d="M57.7041 44.3882C57.066 44.3882 56.4694 43.9923 56.2494 43.3615C55.9717 42.5659 56.398 41.6982 57.2015 41.4232C64.6936 38.8596 76.1014 36.588 87.9035 40.3257C88.7131 40.5821 89.1597 41.4399 88.9007 42.2416C88.6417 43.0435 87.7752 43.4853 86.9658 43.229C75.9703 39.7467 65.2576 41.8919 58.2071 44.3045C58.0405 44.3612 57.8707 44.3882 57.7041 44.3882Z" fill="#423E4F"/>
<path d="M57.7041 35.439C57.066 35.439 56.4694 35.0431 56.2494 34.4123C55.9717 33.6167 56.398 32.749 57.2015 32.474C64.6936 29.9104 76.1014 27.6388 87.9035 31.3764C88.7131 31.6329 89.1597 32.4907 88.9007 33.2924C88.6417 34.0943 87.7752 34.5361 86.9658 34.2798C75.9703 30.7975 65.2576 32.9426 58.2071 35.3553C58.0405 35.412 57.8707 35.439 57.7041 35.439Z" fill="#423E4F"/>
<path d="M57.3193 64.6297C56.6812 64.6297 56.0846 64.2338 55.8646 63.603C55.587 62.8074 56.0132 61.9397 56.8167 61.6647C64.3089 59.1011 75.7167 56.8295 87.5187 60.5671C88.3283 60.8236 88.7749 61.6814 88.5159 62.4831C88.2569 63.285 87.3904 63.7268 86.581 63.4705C75.5855 59.9881 64.8729 62.1333 57.8223 64.5459C57.6557 64.6026 57.486 64.6297 57.3193 64.6297Z" fill="#423E4F"/>
</svg>
