<svg width="106" height="106" viewBox="0 0 106 106" fill="none" xmlns="http://www.w3.org/2000/svg">
<path d="M102.89 49.436C102.672 49.436 102.453 49.461 102.238 49.5103L100.438 49.9233V44.6247C100.438 43.6209 99.9861 42.6884 99.1985 42.0666C98.4118 41.4452 97.401 41.222 96.4248 41.4541C88.6378 43.3083 69.6925 47.8004 61.9693 49.4606C58.7752 50.1471 55.4375 51.8886 53.5235 54.8895C53.9754 52.0022 55.5904 49.4819 58.0817 48.1832L92.4046 31.7298C92.9456 31.4704 93.174 30.8216 92.9148 30.2806C92.6556 29.7396 92.0064 29.5113 91.4656 29.7705L57.1268 46.2315C57.1163 46.2362 57.1061 46.2415 57.0961 46.2467C52.5551 48.6017 50.3298 54.1428 51.5635 59.5605H47.5583L3.74969 49.7039C3.53871 49.6563 3.3234 49.6322 3.10938 49.6322C1.39489 49.6322 0 51.1431 0 53.0006V54.5665C0 56.1873 1.06855 57.5796 2.541 57.8766L46.3514 66.7183V68.992C46.3514 73.0416 49.3339 76.3363 52.9999 76.3363C56.6659 76.3363 59.6484 73.0416 59.6484 68.992V66.7144L103.471 57.6745C104.936 57.3721 106 55.9811 106 54.3668V52.8044C106 50.9469 104.605 49.436 102.89 49.436ZM62.426 51.5844C70.1705 49.9197 89.1342 45.4234 96.9282 43.5675C97.2533 43.4897 97.59 43.5644 97.8519 43.7713C98.1143 43.9786 98.2649 44.2895 98.2649 44.6245V50.4218L58.4389 59.5602H55.9717L57.7792 58.0348C57.7962 58.0207 57.8125 58.0059 57.8286 57.9905C59.7197 56.1862 62.0132 55.0679 64.4608 54.7561C64.489 54.7524 64.5173 54.7477 64.5453 54.742L96.1295 48.158C96.7168 48.0355 97.0938 47.4601 96.9713 46.8726C96.8489 46.2853 96.2738 45.9095 95.6861 46.0307L64.1429 52.6062C61.2586 52.9832 58.5666 54.2925 56.3531 56.395L54.4656 57.9876C55.8635 53.3806 60.7561 51.9435 62.426 51.5844ZM52.292 61.7332H52.996C52.9973 61.7332 52.9986 61.7334 53.0001 61.7334C53.0014 61.7334 53.0027 61.7332 53.004 61.7332H53.708V69.2176C53.708 69.608 53.3903 69.9254 53.0001 69.9254C52.6097 69.9254 52.2922 69.608 52.2922 69.2176V61.7332H52.292ZM103.827 54.3668C103.827 54.9458 103.486 55.4531 103.032 55.5466L58.3426 64.7654C57.8379 64.8695 57.4757 65.314 57.4757 65.8294V68.9923C57.4757 71.844 55.4679 74.1638 52.9999 74.1638C50.5319 74.1638 48.5241 71.844 48.5241 68.9923V65.8294C48.5241 65.3123 48.1595 64.8669 47.6526 64.7646L2.97076 55.7467C2.5158 55.655 2.17272 55.1474 2.17272 54.5662V53.0004C2.17272 52.2851 2.65724 51.8047 3.1096 51.8047C3.16327 51.8047 3.21824 51.811 3.27299 51.8232L46.3514 61.5155V62.1795C46.3514 62.7794 46.8378 63.2658 47.4377 63.2658C48.0376 63.2658 48.5241 62.7794 48.5241 62.1795V61.7328H50.1193V69.2171C50.1193 70.8056 51.4116 72.0977 52.9999 72.0977C54.5882 72.0977 55.8805 70.8054 55.8805 69.2171V61.7328H57.4757V62.1795C57.4757 62.7794 57.962 63.2658 58.5621 63.2658C59.1622 63.2658 59.6484 62.7794 59.6484 62.1795V61.5118L102.724 51.6276C102.78 51.6148 102.836 51.6083 102.89 51.6083C103.343 51.6083 103.827 52.0887 103.827 52.8037V54.3668H103.827Z" fill="black"/>
</svg>
